<svg width="42" height="40" viewBox="0 0 42 40" fill="none" xmlns="http://www.w3.org/2000/svg">
<path d="M0 27.7698C0 15.0259 0 8.65392 3.95902 4.6949C7.91804 0.735878 14.29 0.735878 27.0339 0.735878H41.5282V12.2302C41.5282 24.9741 41.5282 31.3461 37.5692 35.3051C33.6102 39.2641 27.2382 39.2641 14.4944 39.2641H0V27.7698Z" fill="url(#paint0_linear_30_17)"/>
<path d="M12.1186 25V15.1695H15.997C16.7394 15.1695 17.373 15.3023 17.8978 15.5679C18.4258 15.8303 18.8274 16.2031 19.1026 16.6863C19.381 17.1663 19.5202 17.7311 19.5202 18.3807C19.5202 19.0335 19.3794 19.5951 19.0978 20.0655C18.8162 20.5328 18.4082 20.8912 17.8738 21.1408C17.3426 21.3904 16.6994 21.5152 15.9442 21.5152H13.3474V19.8447H15.6082C16.005 19.8447 16.3346 19.7903 16.597 19.6815C16.8594 19.5727 17.0546 19.4095 17.1826 19.1919C17.3138 18.9743 17.3794 18.7039 17.3794 18.3807C17.3794 18.0543 17.3138 17.7791 17.1826 17.5551C17.0546 17.3311 16.8578 17.1615 16.5922 17.0463C16.3298 16.9279 15.9986 16.8687 15.5986 16.8687H14.197V25H12.1186ZM17.4274 20.5264L19.8707 25H17.5762L15.1858 20.5264H17.4274ZM22.6835 25H20.4563L23.8499 15.1695H26.5283L29.9172 25H27.6899L25.2275 17.4159H25.1507L22.6835 25ZM22.5443 21.136H27.8051V22.7584H22.5443V21.136Z" fill="white"/>
<defs>
<linearGradient id="paint0_linear_30_17" x1="0" y1="0.735878" x2="40.7661" y2="40.0543" gradientUnits="userSpaceOnUse">
<stop stop-color="#FFAB6D"/>
<stop offset="1" stop-color="#DD6D1C"/>
</linearGradient>
</defs>
</svg>
